<svg aria-label="Intuit QuickBooks" height="28" viewBox="0 0 162 31" width="142" xmlns="http://www.w3.org/2000/svg">
<g fill="none" fill-rule="nonzero">
<g fill="#000">
<path d="M160.709 23.452c0-.324-.28-.442-.567-.442h-.537v1.51h.274v-.632h.197l.358.631h.334l-.411-.66c.214-.047.352-.189.352-.407zm-.83.218v-.43h.25c.144 0 .305.041.305.206 0 .183-.179.224-.334.224h-.22zm.257-1.238c-.752 0-1.36.596-1.36 1.339 0 .742.608 1.326 1.36 1.326.752 0 1.36-.584 1.36-1.326 0-.743-.608-1.339-1.36-1.339zm0 2.47a1.143 1.143 0 0 1-1.146-1.131 1.14 1.14 0 0 1 1.146-1.132c.632 0 1.145.507 1.145 1.132 0 .618-.513 1.131-1.145 1.131zM72.612 22.659c-1.99 0-2.994-1.757-2.994-3.455 0-1.698 1.089-3.38 2.898-3.38.848 0 1.919.42 2.34 1.01l2.106-2.074c-1.02-1.061-2.645-1.695-4.446-1.695-3.664 0-6.323 2.598-6.323 6.176 0 3.637 2.63 6.176 6.395 6.176 1.792 0 3.447-.518 4.429-1.56l-2.05-2.173c-.473.57-1.465.975-2.355.975zm-11.783 2.429h3.27V13.394h-3.27v11.694zm-5.943-5.283c0 1.375-.907 2.854-2.597 2.854-1.303 0-1.999-.918-1.999-2.806v-6.459h-3.268v7.258c0 2.415 1.22 4.765 4.481 4.765 1.539 0 2.827-1.196 3.477-2.079h.048v1.75h3.126V13.394h-3.268v6.411zM41.125 14.88h-.073c-.462-.504-1.713-1.814-3.744-1.814-3.333 0-5.901 2.578-5.901 6.13 0 3.605 2.37 6.222 5.744 6.222 1.532 0 2.972-.802 3.806-1.735h.048v7.164h3.27V13.394h-3.15v1.485zm-3.174 7.78c-2.021 0-3.17-1.743-3.17-3.465 0-1.646 1.055-3.417 3.17-3.417 1.945 0 3.15 1.798 3.15 3.464 0 1.68-1.179 3.418-3.15 3.418zm74.456-9.594c-3.72 0-6.419 2.578-6.419 6.13 0 3.674 2.76 6.254 6.419 6.254s6.418-2.604 6.418-6.255c0-3.551-2.7-6.129-6.418-6.129zm0 9.594c-2.132 0-3.103-1.796-3.103-3.465 0-1.646.971-3.417 3.103-3.417 2.131 0 3.102 1.771 3.102 3.417 0 1.669-.97 3.465-3.102 3.465zm40.866-4.768c-1.682-.397-2.275-.61-2.275-1.283 0-.928 1.19-1.132 1.73-1.132 1.014 0 2.16.598 2.59 1.166l1.928-1.826c-.892-1.106-2.645-1.75-4.495-1.75-2.366 0-4.85 1.175-4.85 3.8 0 2.255 1.789 2.935 3.54 3.35 1.844.424 2.503.734 2.503 1.468 0 1.083-1.243 1.26-1.671 1.26-1.07 0-2.309-.606-2.977-1.39l-1.984 1.988c1.084 1.187 2.94 1.902 4.842 1.902 3.195 0 5.092-1.505 5.092-3.988 0-2.376-2.321-3.174-3.973-3.565zm-6.18-4.497h-4.215l-4.22 4.853h-.073V6.95h-3.269v18.137h3.269V19.32h.073l4.378 5.768h4.302l-5.089-6.39 4.845-5.304zm-48.471-.329c-1.495 0-2.596.646-3.636 1.608h-.062V6.951h-3.268v18.137h3.126v-1.653h.049c.737 1.194 2.201 1.982 3.72 1.982 3.374 0 5.932-2.617 5.932-6.223 0-3.551-2.528-6.129-5.861-6.129zm-.643 9.594c-1.972 0-3.15-1.738-3.15-3.418 0-1.666 1.205-3.464 3.15-3.464 2.115 0 3.168 1.771 3.168 3.417 0 1.722-1.146 3.465-3.168 3.465zm-7.553-9.265h-4.215l-4.22 4.853h-.073V6.95h-3.27v18.137h3.27V19.32h.072l4.379 5.768h4.301l-5.088-6.39 4.844-5.304zm36.345-.329c-3.72 0-6.42 2.578-6.42 6.13 0 3.674 2.76 6.254 6.42 6.254 3.659 0 6.418-2.604 6.418-6.255 0-3.551-2.7-6.129-6.418-6.129zm0 9.594c-2.132 0-3.103-1.796-3.103-3.465 0-1.646.97-3.417 3.103-3.417 2.131 0 3.102 1.771 3.102 3.417 0 1.669-.971 3.465-3.102 3.465z"></path>
</g>
<g transform="translate(.08 .085)">
<ellipse cx="13.883" cy="13.67" fill="#2CA01C" rx="13.769" ry="13.602"></ellipse>
<path d="M3.937 13.67c0 2.921 2.397 5.29 5.355 5.29h.765v-1.966h-.765c-1.856 0-3.366-1.491-3.366-3.324 0-1.834 1.51-3.325 3.366-3.325h1.838v10.277c0 1.085.89 1.964 1.989 1.964V8.38H9.292c-2.958 0-5.355 2.368-5.355 5.29zm14.537-5.29h-.765v1.966h.765c1.856 0 3.366 1.491 3.366 3.324 0 1.834-1.51 3.325-3.366 3.325h-1.838V6.718c0-1.085-.89-1.964-1.99-1.964V18.96h3.828c2.957 0 5.355-2.368 5.355-5.29 0-2.92-2.398-5.29-5.355-5.29z" fill="#FFF"></path>
</g>
<path d="M44.888 3.25c.503 0 .91-.402.91-.899a.904.904 0 0 0-.91-.898.904.904 0 0 0-.91.898c0 .497.408.9.91.9zm-5.43.606c-.89 0-1.605.533-1.868 1.128h-.026V4.03h-1.43v5.949h1.506V6.706c0-.792.452-1.61 1.405-1.61.966 0 1.13.88 1.13 1.586v3.297h1.505V6.26c0-1.214-.652-2.404-2.221-2.404zm-6.372 6.123h1.505v-5.95h-1.505v5.95zm27.38-6.729c.503 0 .91-.402.91-.899a.904.904 0 0 0-.91-.898.904.904 0 0 0-.91.898c0 .497.408.9.91.9zm-2.44.776v1.318h1.688v4.635h1.505V5.344h1.688V4.026h-4.882zm-2.561 5.953h1.506v-5.95h-1.506v5.95zM42.447 5.344h1.688v4.635h1.506V5.344h1.688V4.026h-4.882v1.318zm9.97 1.958c0 .793-.451 1.61-1.404 1.61-.967 0-1.13-.88-1.13-1.586V4.03h-1.506v3.718c0 1.215.653 2.404 2.221 2.404.891 0 1.607-.533 1.87-1.128h.025v.955h1.43v-5.95h-1.505v3.273z" fill="#000"></path>
</g>
</svg>